HIERARCHY
ROOT Hips
{
    OFFSET   0.000000   0.000000   0.000000
    CHANNELS 6 Xposition Yposition Zposition Zrotation Xrotation Yrotation
    JOINT Chest
    {
        OFFSET   0.000000   8.007230   0.000000
        CHANNELS 3 Zrotation Xrotation Yrotation
        JOINT Chest2
        {
            OFFSET   0.000000  22.077100   0.000000
            CHANNELS 3 Zrotation Xrotation Yrotation
            JOINT Neck
            {
                OFFSET   0.000000  23.254700   0.000000
                CHANNELS 3 Zrotation Xrotation Yrotation
                JOINT Head
                {
                    OFFSET   0.000010  14.370000   1.956610
                    CHANNELS 3 Zrotation Xrotation Yrotation
                    End Site
                    {
                        OFFSET   0.000000  19.566000   0.000000
                    }
                }
            }
            JOINT LeftCollar
            {
                OFFSET   3.911900  19.017000  -0.467063
                CHANNELS 3 Zrotation Xrotation Yrotation
                JOINT LeftShoulder
                {
                    OFFSET  10.383700   0.000000   0.000000
                    CHANNELS 3 Zrotation Xrotation Yrotation
                    JOINT LeftElbow
                    {
                        OFFSET  26.662100   0.001671   0.000522
                        CHANNELS 3 Zrotation Xrotation Yrotation
                        JOINT LeftWrist
                        {
                            OFFSET  28.869000   0.000037  -0.000114
                            CHANNELS 3 Zrotation Xrotation Yrotation
                            JOINT LeftFinger0
                            {
                                OFFSET   2.044650  -2.323450   3.252850
                                CHANNELS 3 Zrotation Xrotation Yrotation
                                JOINT LeftFinger01
                                {
                                    OFFSET   3.088140   0.000000   0.000000
                                    CHANNELS 3 Zrotation Xrotation Yrotation
                                    JOINT LeftFinger02
                                    {
                                        OFFSET   2.639460   0.000000   0.000000
                                        CHANNELS 3 Zrotation Xrotation Yrotation
                                        End Site
                                        {
                                            OFFSET   2.582190   0.000000   0.000000
                                        }
                                    }
                                }
                            }
                            JOINT LeftFinger1
                            {
                                OFFSET   8.364480   0.000000   3.252850
                                CHANNELS 3 Zrotation Xrotation Yrotation
                                JOINT LeftFinger11
                                {
                                    OFFSET   4.646930   0.000000   0.000000
                                    CHANNELS 3 Zrotation Xrotation Yrotation
                                    JOINT LeftFinger12
                                    {
                                        OFFSET   2.323470   0.000000   0.000000
                                        CHANNELS 3 Zrotation Xrotation Yrotation
                                        End Site
                                        {
                                            OFFSET   2.273050   0.000000   0.000000
                                        }
                                    }
                                }
                            }
                            JOINT LeftFinger2
                            {
                                OFFSET   8.364490   0.000016   1.078090
                                CHANNELS 3 Zrotation Xrotation Yrotation
                                JOINT LeftFinger21
                                {
                                    OFFSET   5.111620   0.000000   0.000000
                                    CHANNELS 3 Zrotation Xrotation Yrotation
                                    JOINT LeftFinger22
                                    {
                                        OFFSET   2.788150   0.000013   0.000000
                                        CHANNELS 3 Zrotation Xrotation Yrotation
                                        End Site
                                        {
                                            OFFSET   2.727660   0.000000   0.000000
                                        }
                                    }
                                }
                            }
                            JOINT LeftFinger3
                            {
                                OFFSET   7.899780   0.000016  -1.078090
                                CHANNELS 3 Zrotation Xrotation Yrotation
                                JOINT LeftFinger31
                                {
                                    OFFSET   4.646930   0.000000   0.000000
                                    CHANNELS 3 Zrotation Xrotation Yrotation
                                    JOINT LeftFinger32
                                    {
                                        OFFSET   2.323470   0.000000   0.000000
                                        CHANNELS 3 Zrotation Xrotation Yrotation
                                        End Site
                                        {
                                            OFFSET   2.273050   0.000000   0.000000
                                        }
                                    }
                                }
                            }
                            JOINT LeftFinger4
                            {
                                OFFSET   7.435080   0.000000  -3.252850
                                CHANNELS 3 Zrotation Xrotation Yrotation
                                JOINT LeftFinger41
                                {
                                    OFFSET   3.717550   0.000000   0.000000
                                    CHANNELS 3 Zrotation Xrotation Yrotation
                                    JOINT LeftFinger42
                                    {
                                        OFFSET   1.858760   0.000000   0.000000
                                        CHANNELS 3 Zrotation Xrotation Yrotation
                                        End Site
                                        {
                                            OFFSET   1.818440   0.000000   0.000000
                                        }
                                    }
                                }
                            }
                        }
                    }
                }
            }
            JOINT RightCollar
            {
                OFFSET  -3.911900  19.017000  -0.467064
                CHANNELS 3 Zrotation Xrotation Yrotation
                JOINT RightShoulder
                {
                    OFFSET -10.383700   0.000000   0.000000
                    CHANNELS 3 Zrotation Xrotation Yrotation
                    JOINT RightElbow
                    {
                        OFFSET -26.662100   0.001633   0.000260
                        CHANNELS 3 Zrotation Xrotation Yrotation
                        JOINT RightWrist
                        {
                            OFFSET -28.869000  -0.000045  -0.000080
                            CHANNELS 3 Zrotation Xrotation Yrotation
                            JOINT RightFinger0
                            {
                                OFFSET  -2.044660  -2.323490   3.252850
                                CHANNELS 3 Zrotation Xrotation Yrotation
                                JOINT RightFinger01
                                {
                                    OFFSET  -3.088140   0.000000   0.000000
                                    CHANNELS 3 Zrotation Xrotation Yrotation
                                    JOINT RightFinger02
                                    {
                                        OFFSET  -2.639450   0.000000   0.000000
                                        CHANNELS 3 Zrotation Xrotation Yrotation
                                        End Site
                                        {
                                            OFFSET  -2.582190   0.000000   0.000000
                                        }
                                    }
                                }
                            }
                            JOINT RightFinger1
                            {
                                OFFSET  -8.364480   0.000000   3.252850
                                CHANNELS 3 Zrotation Xrotation Yrotation
                                JOINT RightFinger11
                                {
                                    OFFSET  -4.646920   0.000000   0.000000
                                    CHANNELS 3 Zrotation Xrotation Yrotation
                                    JOINT RightFinger12
                                    {
                                        OFFSET  -2.323470   0.000000   0.000000
                                        CHANNELS 3 Zrotation Xrotation Yrotation
                                        End Site
                                        {
                                            OFFSET  -2.273050   0.000000   0.000000
                                        }
                                    }
                                }
                            }
                            JOINT RightFinger2
                            {
                                OFFSET  -8.364480   0.000000   1.078090
                                CHANNELS 3 Zrotation Xrotation Yrotation
                                JOINT RightFinger21
                                {
                                    OFFSET  -5.111610   0.000000   0.000000
                                    CHANNELS 3 Zrotation Xrotation Yrotation
                                    JOINT RightFinger22
                                    {
                                        OFFSET  -2.788160   0.000000   0.000000
                                        CHANNELS 3 Zrotation Xrotation Yrotation
                                        End Site
                                        {
                                            OFFSET  -2.727660   0.000000   0.000000
                                        }
                                    }
                                }
                            }
                            JOINT RightFinger3
                            {
                                OFFSET  -7.899780   0.000000  -1.078090
                                CHANNELS 3 Zrotation Xrotation Yrotation
                                JOINT RightFinger31
                                {
                                    OFFSET  -4.646930   0.000000   0.000000
                                    CHANNELS 3 Zrotation Xrotation Yrotation
                                    JOINT RightFinger32
                                    {
                                        OFFSET  -2.323470   0.000000   0.000000
                                        CHANNELS 3 Zrotation Xrotation Yrotation
                                        End Site
                                        {
                                            OFFSET  -2.273050   0.000000   0.000000
                                        }
                                    }
                                }
                            }
                            JOINT RightFinger4
                            {
                                OFFSET  -7.435090   0.000000  -3.252850
                                CHANNELS 3 Zrotation Xrotation Yrotation
                                JOINT RightFinger41
                                {
                                    OFFSET  -3.717550   0.000000   0.000000
                                    CHANNELS 3 Zrotation Xrotation Yrotation
                                    JOINT RightFinger42
                                    {
                                        OFFSET  -1.858760   0.000000   0.000000
                                        CHANNELS 3 Zrotation Xrotation Yrotation
                                        End Site
                                        {
                                            OFFSET  -1.818440   0.000000   0.000000
                                        }
                                    }
                                }
                            }
                        }
                    }
                }
            }
        }
    }
    JOINT LeftHip
    {
        OFFSET   9.782990   0.000000   0.000000
        CHANNELS 3 Zrotation Xrotation Yrotation
        JOINT LeftKnee
        {
            OFFSET  -0.000063 -41.789100   0.001657
            CHANNELS 3 Zrotation Xrotation Yrotation
            JOINT LeftAnkle
            {
                OFFSET   0.000078 -41.133200  -0.000113
                CHANNELS 3 Zrotation Xrotation Yrotation
                JOINT LeftToe
                {
                    OFFSET   0.000000  -6.358970  14.674500
                    CHANNELS 3 Zrotation Xrotation Yrotation
                    End Site
                    {
                        OFFSET   0.000000   0.000000   3.913200
                    }
                }
            }
        }
    }
    JOINT RightHip
    {
        OFFSET  -9.782990   0.000000   0.000000
        CHANNELS 3 Zrotation Xrotation Yrotation
        JOINT RightKnee
        {
            OFFSET   0.000053 -41.789200   0.000277
            CHANNELS 3 Zrotation Xrotation Yrotation
            JOINT RightAnkle
            {
                OFFSET   0.000030 -41.133200  -0.000150
                CHANNELS 3 Zrotation Xrotation Yrotation
                JOINT RightToe
                {
                    OFFSET   0.000000  -6.358960  14.674500
                    CHANNELS 3 Zrotation Xrotation Yrotation
                    End Site
                    {
                        OFFSET   0.000000   0.000000   3.913200
                    }
                }
            }
        }
    }
}
MOTION
Frames: 6
Frame Time:   0.016667
 -0.380989  89.633600  -1.850750  -2.344630  -6.065180  -2.773510   0.378568   4.208750   0.134220   0.750273   8.418310   0.241453  -0.264437  -0.595719  -0.007341  -0.435437  -1.207930   2.521770  -4.297090  -2.680890   1.452550 -76.637600  16.073600  -0.558032  -1.576870  -6.758730 -14.298400  11.126600  -2.683970   2.441800  38.156700  27.809400 -55.140400 -30.122100   0.000000   0.000082 -10.061000  -0.004964  -0.004856 -20.197700   3.641470  -9.776690 -16.780800   0.001893  -0.008503 -11.746500  -0.006536  -0.007629 -21.759600   0.997285  -2.493660 -21.781300   0.002153  -0.007105 -14.506300   0.001268  -0.011593 -21.169100   0.973158  -2.503350 -21.190400   0.000000  -0.002540 -14.111700  -0.001793  -0.002740 -22.948300   1.051040  -2.471820 -34.465000   0.002414  -0.000000 -22.947900   0.001295   0.001049   8.443180   0.484875   6.359750  72.557500   5.147880  -3.614290   0.747063  -8.615460  10.513600 -17.529300   0.267306   1.696560 -34.091600  24.509100  55.296900  34.785300   0.000000  -0.000996  12.392600   0.000372  -0.000131  27.474200   7.323040  13.773100  23.198700  -0.011791  -0.001220  16.251500   0.001191  -0.000990  28.828000   2.809220   5.088640  43.429300  -0.001759   0.000426  28.923900   0.000193   0.000198  28.664600   2.794220   5.096820  41.508000  -0.002245   0.000205  27.644300   0.001567   0.001461  40.257400  -1.150180  -1.357930  60.406400   0.007157   0.000364  40.230700  -0.000506   0.000061   1.553200   7.153240   2.375400   0.891564   0.113964   5.985980  -0.676186  -2.339040   3.601840  -0.000000   0.000000   0.000000   4.402710   4.709780   1.325200  -2.438960   4.041250  -4.799150  -0.941397  -4.030890  -3.220620   0.000000   0.000000  -0.000000
 -0.380920  89.633500  -1.843730  -2.345210  -6.091250  -2.767160   0.378389   4.223390   0.134331   0.749914   8.447580   0.241658  -0.262766  -0.613389  -0.007341  -0.432348  -1.243860   2.535940  -4.296050  -2.679040   1.471330 -76.632700  16.125400  -0.573962  -1.584990  -6.785200 -14.309600  11.135000  -2.684820   2.433850  38.163800  27.818800 -55.155000 -30.122100   0.000000   0.000073 -10.061000  -0.004964  -0.004858 -20.180200   3.639400  -9.788800 -16.766400   0.001893  -0.008497 -11.736400  -0.006531  -0.007620 -21.740000   0.997284  -2.497680 -21.761700   0.002158  -0.007117 -14.493300   0.001273  -0.011603 -21.169100   0.973155  -2.507280 -21.190400   0.000028  -0.002542 -14.111200  -0.001796  -0.002761 -22.947800   1.051030  -2.475730 -34.466400   0.002420   0.000000 -22.947400   0.001288   0.001087   8.443290   0.483709   6.362780  72.550600   5.175090  -3.603220   0.746734  -8.567720  10.517000 -17.537700   0.269455   1.692190 -34.101800  24.530600  55.309300  34.791300   0.000000  -0.001009  12.395600   0.000355  -0.000144  27.479100   7.311410  13.749400  23.201600  -0.011796  -0.001227  16.251600   0.001181  -0.000996  28.853900   2.803310   5.071030  43.467000  -0.001729   0.000383  28.949000   0.000162   0.000162  28.666200   2.785630   5.080690  41.584200  -0.002199   0.000165  27.695000   0.001545   0.001406  40.290700  -1.160000  -1.367900  60.456700   0.007144   0.000374  40.264200  -0.000556   0.000010   1.551130   7.192430   2.375500   0.897165   0.091044   5.986150  -0.674027  -2.329240   3.597480  -0.000000   0.000000   0.000000   4.412740   4.733730   1.332580  -2.444900   4.057110  -4.807700  -0.942934  -4.043910  -3.230790  -0.000000   0.000000   0.000000
 -0.380852  89.633400  -1.830780  -2.346030  -6.135590  -2.754900   0.378141   4.246630   0.135097   0.749315   8.494070   0.242996  -0.258035  -0.643089  -0.007344  -0.424140  -1.304180   2.550130  -4.294650  -2.672040   1.498850 -76.623700  16.207900  -0.603299  -1.593120  -6.811670 -14.320800  11.154000  -2.687360   2.425920  38.170900  27.828100 -55.169600 -30.122100   0.000000   0.000065 -10.061000  -0.004962  -0.004872 -20.154600   3.635150  -9.800890 -16.745200   0.001895  -0.008477 -11.721600  -0.006520  -0.007600 -21.720300   0.997283  -2.501710 -21.742000   0.002171  -0.007146 -14.480200   0.001283  -0.011633 -21.169000   0.973151  -2.511200 -21.190400   0.000077  -0.002548 -14.110700  -0.001798  -0.002807 -22.947200   1.051030  -2.479630 -34.468400   0.002437  -0.000000 -22.947000   0.001281   0.001124   8.444120   0.475560   6.373420  72.538400   5.230460  -3.592300   0.745553  -8.498110  10.519700 -17.546500   0.284500   1.682450 -34.094300  24.552000  55.321800  34.808200   0.000000  -0.001042  12.404100   0.000326  -0.000173  27.484000   7.299770  13.725600  23.206700  -0.011806  -0.001244  16.251800   0.001153  -0.001011  28.894600   2.797400   5.053420  43.527100  -0.001659   0.000287  28.989000   0.000106   0.000091  28.667900   2.777040   5.064570  41.708200  -0.002100   0.000084  27.777600   0.001497   0.001290  40.342900  -1.175430  -1.383540  60.535600   0.007114   0.000395  40.316700  -0.000666  -0.000102   1.548160   7.252180   2.375710   0.905158   0.068123   5.986320  -0.670906  -2.319450   3.588460   0.000000   0.000000   0.000000   4.427330   4.778020   1.340010  -2.453330   4.078820  -4.823390  -0.944926  -4.064870  -3.240990  -0.000000   0.000000  -0.000000
 -0.380927  89.633300  -1.817760  -2.346900  -6.172030  -2.740870   0.377873   4.262610   0.140164   0.748114   8.526070   0.253069  -0.249600  -0.667936  -0.007351  -0.410239  -1.354470   2.547720  -4.294320  -2.657770   1.511600 -76.621100  16.261200  -0.633345  -1.592420  -6.810660 -14.318800  11.181600  -2.690340   2.435160  38.156300  27.811800 -55.155600 -30.136200   0.000000   0.000119 -10.068100  -0.004953  -0.004905 -20.139800   3.628470  -9.791690 -16.732400   0.001898  -0.008444 -11.712700  -0.006501  -0.007575 -21.740300   0.993729  -2.490620 -21.761900   0.002194  -0.007189 -14.493400   0.001298  -0.011684 -21.171500   0.969011  -2.500360 -21.192800   0.000118  -0.002562 -14.113200  -0.001764  -0.002869 -22.949600   1.046380  -2.469000 -34.468800   0.002467   0.000087 -22.949100   0.001299   0.001118   8.464080   0.441574   6.390720  72.526000   5.292110  -3.606710   0.739647  -8.458870  10.494500 -17.547800   0.323462   1.676170 -34.058900  24.520100  55.368800  34.835900  -0.000031  -0.001094  12.418000   0.000300  -0.000215  27.491700   7.303220  13.727600  23.212300  -0.011824  -0.001271  16.251400   0.001110  -0.001033  28.924100   2.800580   5.053670  43.570500  -0.001557   0.000141  29.017900   0.000060   0.000008  28.667700   2.777970   5.066100  41.805200  -0.001963  -0.000022  27.842300   0.001432   0.001130  40.378100  -1.185860  -1.394080  60.588800   0.007069   0.000423  40.352100  -0.000821  -0.000260   1.546760   7.281690   2.376890   0.909148   0.090809   5.983280  -0.669510  -2.335740   3.577090   0.000000   0.000000  -0.000000   4.435850   4.822970   1.332450  -2.457830   4.084670  -4.838310  -0.945538  -4.079710  -3.238040  -0.000000   0.000000   0.000000
 -0.381098  89.633200  -1.803380  -2.349180  -6.211400  -2.726170   0.378186   4.277580   0.149156   0.748300   8.556080   0.271037  -0.239957  -0.691960  -0.007362  -0.394415  -1.403100   2.534430  -4.294260  -2.639590   1.522460 -76.629700  16.319900  -0.665242  -1.589890  -6.809820 -14.311600  11.212700  -2.697450   2.451830  38.133800  27.783500 -55.127000 -30.156300   0.000000   0.000218 -10.078100  -0.004934  -0.004949 -20.133100   3.623970  -9.782500 -16.726400   0.001901  -0.008402 -11.708500  -0.006476  -0.007542 -21.773700   0.988193  -2.472340 -21.795000   0.002224  -0.007245 -14.515500   0.001315  -0.011749 -21.181800   0.962604  -2.482410 -21.202700   0.000165  -0.002579 -14.121000  -0.001702  -0.002948 -22.957300   1.039090  -2.451400 -34.469200   0.002503   0.000233 -22.956500   0.001329   0.001113   8.502000   0.390246   6.420610  72.516200   5.373110  -3.621240   0.728656  -8.442590  10.429400 -17.549100   0.372569   1.653640 -34.003400  24.453000  55.411900  34.872900  -0.000083  -0.001151  12.436500   0.000272  -0.000266  27.499300   7.306660  13.729700  23.215800  -0.011844  -0.001302  16.250400   0.001054  -0.001058  28.948300   2.803760   5.053930  43.607800  -0.001447   0.000000  29.042800   0.000000  -0.000078  28.667400   2.778900   5.067620  41.890400  -0.001816  -0.000118  27.899000   0.001362   0.000970  40.408900  -1.194990  -1.403300  60.635300   0.007016   0.000451  40.383100  -0.000985  -0.000428   1.544760   7.317650   2.380940   0.910757   0.113496   5.976710  -0.667718  -2.352040   3.564590   0.000000   0.000000  -0.000000   4.439960   4.872420   1.316540  -2.458830   4.088120  -4.856310  -0.945361  -4.094380  -3.225490  -0.000000   0.000000  -0.000000
 -0.381363  89.633100  -1.788580  -2.352610  -6.254740  -2.713010   0.382337   4.291170   0.160785   0.755983   8.583330   0.293956  -0.231239  -0.711761  -0.007375  -0.380088  -1.443360   2.502470  -4.295670  -2.619480   1.539560 -76.653600  16.403700  -0.698254  -1.587240  -6.833360 -14.293100  11.242600  -2.711570   2.472330  38.117200  27.751400 -55.082200 -30.165800   0.000000   0.000317 -10.083000  -0.004896  -0.005000 -20.141800   3.626590  -9.784890 -16.733800   0.001898  -0.008356 -11.713700  -0.006447  -0.007501 -21.800100   0.983821  -2.454680 -21.821200   0.002260  -0.007314 -14.532900   0.001336  -0.011826 -21.202900   0.957672  -2.464780 -21.223600   0.000224  -0.002594 -14.135100  -0.001641  -0.003040 -22.971500   1.033220  -2.434110 -34.486500   0.002542   0.000352 -22.970500   0.001350   0.001126   8.551560   0.335914   6.474230  72.512700   5.451180  -3.603930   0.714484  -8.487120  10.331000 -17.541000   0.422952   1.611130 -33.955600  24.355000  55.360300  34.907300  -0.000127  -0.001198  12.453700   0.000248  -0.000330  27.504800   7.266420  13.654200  23.213400  -0.011862  -0.001332  16.248700   0.000992  -0.001081  28.971700   2.759050   4.969820  43.640300  -0.001347  -0.000078  29.064400  -0.000121  -0.000161  28.671500   2.733190   4.984090  41.961000  -0.001677  -0.000153  27.946000   0.001294   0.000853  40.441000  -1.204570  -1.412960  60.683900   0.006962   0.000472  40.415500  -0.001140  -0.000586   1.542630   7.386890   2.389910   0.910182   0.080143   5.967500  -0.662593  -2.339980   3.552480   0.000000   0.000000   0.000000   4.437870   4.920740   1.295470  -2.455270   4.097440  -4.877340  -0.942764  -4.110540  -3.199980  -0.000000   0.000000  -0.000000
